<?xml version="1.0" standalone="no"?>
<!DOCTYPE svg PUBLIC "-//W3C//DTD SVG 20010904//EN"
 "http://www.w3.org/TR/2001/REC-SVG-20010904/DTD/svg10.dtd">
<svg version="1.0" xmlns="http://www.w3.org/2000/svg"
 width="738.000000pt" height="657.000000pt" viewBox="0 0 738.000000 657.000000"
 preserveAspectRatio="xMidYMid meet">
<metadata>
Created by potrace 1.16, written by Peter Selinger 2001-2019
</metadata>
<g transform="translate(0.000000,657.000000) scale(0.072070,-0.064160)"
fill="#000000" stroke="none">
<path d="M0 5120 l0 -5120 5120 0 5120 0 0 5120 0 5120 -5120 0 -5120 0 0
-5120z m4854 1995 c8 -9 29 -60 45 -113 17 -53 91 -297 166 -542 158 -521 145
-481 156 -455 5 11 76 259 159 550 83 292 158 540 166 553 14 22 18 22 227 22
227 0 237 -2 237 -50 0 -14 -129 -407 -286 -875 -225 -668 -291 -855 -311
-872 -24 -23 -29 -23 -263 -23 -234 0 -239 0 -263 23 -20 17 -87 207 -316 886
-275 817 -290 866 -276 888 l15 23 265 0 c224 0 266 -2 279 -15z m470 -1986
c224 -30 434 -131 536 -260 30 -39 40 -60 40 -88 0 -47 -20 -66 -199 -195
-160 -115 -173 -118 -251 -53 -130 107 -184 125 -346 114 -103 -6 -148 -28
-152 -74 -3 -27 1 -33 40 -51 24 -12 158 -51 298 -87 140 -37 281 -77 313 -90
286 -115 435 -394 372 -696 -58 -274 -295 -467 -640 -519 -110 -17 -330 -15
-447 4 -285 46 -539 183 -622 336 -32 59 -30 104 7 137 54 49 305 214 334 219
48 9 84 -10 137 -71 96 -111 176 -145 346 -145 165 0 255 36 248 98 -5 46 -52
66 -310 129 -344 85 -428 122 -555 251 -107 107 -172 258 -173 399 0 123 54
275 134 371 184 225 502 322 890 271z"/>
<path d="M4942 5029 c-217 -36 -409 -164 -487 -323 -125 -257 -10 -547 268
-677 34 -15 172 -56 307 -89 135 -33 263 -68 285 -76 78 -30 125 -93 125 -167
0 -119 -134 -190 -355 -190 -180 1 -272 37 -388 155 -79 80 -55 84 -234 -40
l-122 -85 17 -30 c60 -104 245 -207 465 -259 126 -30 461 -33 576 -5 154 37
287 110 365 200 163 185 165 489 5 670 -89 102 -174 140 -494 222 -278 71
-311 82 -362 116 -79 55 -91 158 -26 221 16 15 51 37 78 50 45 21 65 23 190
23 171 -1 220 -16 313 -101 39 -35 66 -53 74 -48 7 4 68 47 135 96 139 101
137 96 59 165 -87 77 -237 141 -395 168 -91 16 -312 18 -399 4z"/>
</g>
</svg>
